<svg version="1.1" xmlns="http://www.w3.org/2000/svg" xmlns:xlink="http://www.w3.org/1999/xlink" width="800px" height="800px" viewBox="0,0,256,256"><g fill="#ffffff" fill-rule="nonzero" stroke="none" stroke-width="1" stroke-linecap="butt" stroke-linejoin="miter" stroke-miterlimit="10" stroke-dasharray="" stroke-dashoffset="0" font-family="none" font-weight="none" font-size="none" text-anchor="none" style="mix-blend-mode: normal"><g transform="translate(0,-0.00407) scale(8.14172,8.14172)"><g><path d="M15.723,0c-8.669,0 -15.721,7.053 -15.721,15.722c0,8.669 7.052,15.722 15.721,15.722c8.667,0 15.718,-7.053 15.718,-15.722c0,-8.669 -7.05,-15.722 -15.718,-15.722zM5.793,23.839c-1.622,-1.897 -2.625,-4.163 -2.923,-6.599h3.87c0.104,1.929 0.388,3.754 0.854,5.44c-0.636,0.343 -1.24,0.732 -1.801,1.159zM6.74,14.202h-3.869c0.298,-2.434 1.298,-4.696 2.92,-6.591c0.549,0.42 1.153,0.808 1.804,1.154c-0.468,1.685 -0.755,3.51 -0.855,5.437zM8.034,25.917c0.198,-0.127 0.395,-0.247 0.595,-0.36c0.173,0.383 0.354,0.746 0.544,1.096c-0.395,-0.226 -0.775,-0.472 -1.139,-0.736zM8.631,5.881c-0.213,-0.116 -0.41,-0.234 -0.598,-0.354c0.364,-0.264 0.744,-0.508 1.139,-0.733c-0.19,0.344 -0.371,0.709 -0.541,1.087zM14.338,28.048c-1.154,-0.565 -2.225,-1.813 -3.082,-3.597c0.983,-0.297 2.019,-0.492 3.082,-0.584zM14.338,20.822c-1.443,0.103 -2.824,0.36 -4.122,0.771c-0.374,-1.365 -0.611,-2.827 -0.708,-4.354h4.83zM14.338,14.202h-4.83c0.097,-1.522 0.334,-2.983 0.704,-4.354c1.302,0.409 2.686,0.668 4.126,0.771zM14.338,7.574c-1.067,-0.092 -2.099,-0.286 -3.082,-0.583c0.857,-1.785 1.928,-3.032 3.082,-3.598zM17.107,3.396c1.15,0.563 2.222,1.811 3.078,3.594c-0.983,0.295 -2.015,0.492 -3.078,0.583zM17.107,28.048v-4.179c1.07,0.092 2.104,0.285 3.082,0.58c-0.857,1.787 -1.927,3.035 -3.082,3.599zM21.229,21.597c-1.297,-0.412 -2.682,-0.67 -4.121,-0.772v-3.582h4.83c-0.098,1.524 -0.334,2.986 -0.709,4.354zM17.107,14.202v-3.582c1.443,-0.101 2.824,-0.361 4.121,-0.771c0.375,1.367 0.611,2.828 0.709,4.353zM22.273,26.65c0.188,-0.343 0.367,-0.705 0.541,-1.082c0.209,0.115 0.406,0.232 0.594,0.351c-0.364,0.263 -0.741,0.508 -1.135,0.731zM22.818,5.886c-0.174,-0.381 -0.354,-0.746 -0.545,-1.093c0.395,0.226 0.771,0.47 1.139,0.733c-0.197,0.127 -0.394,0.246 -0.594,0.36zM25.646,7.602c1.627,1.897 2.629,4.164 2.927,6.601h-3.872c-0.1,-1.925 -0.389,-3.752 -0.854,-5.443c0.637,-0.344 1.24,-0.732 1.799,-1.158zM25.65,23.834c-0.551,-0.424 -1.153,-0.812 -1.801,-1.156c0.467,-1.686 0.752,-3.509 0.852,-5.438h3.872c-0.298,2.433 -1.3,4.698 -2.923,6.594z"></path></g></g></g></svg>