<svg width="651" height="648" viewBox="0 0 651 648" fill="none" xmlns="http://www.w3.org/2000/svg">
<rect x="20" y="20" width="540" height="540" rx="40" stroke="white" stroke-width="40"/>
<path d="M252.5 458.75C231.875 458.75 214.219 451.406 199.531 436.719C184.844 422.031 177.5 404.375 177.5 383.75C177.5 363.125 184.844 345.469 199.531 330.781C214.219 316.094 231.875 308.75 252.5 308.75C259.687 308.75 266.25 309.687 272.188 311.562C278.438 313.125 284.375 315.625 290 319.062V121.25H402.5V196.25H327.5V383.75C327.5 404.375 320.156 422.031 305.469 436.719C290.781 451.406 273.125 458.75 252.5 458.75Z" fill="#FEF7FF"/>
<line x1="40" y1="628" x2="611.001" y2="628" stroke="white" stroke-width="40"/>
<line x1="630" y1="39.9649" x2="630.998" y2="608.965" stroke="white" stroke-width="40"/>
<path d="M651 610.999C651 631.434 633.539 647.999 612 647.999C590.461 647.999 532 645.934 532 625.5C527.5 602.5 549.805 610.153 569.5 608C583.223 606.5 595.376 603.573 601 598.5C610.5 589.93 609.68 583.535 610.5 570C611 548.5 611.69 523.899 630.5 535C649.05 545.947 651 590.565 651 610.999Z" fill="white"/>
</svg>
